<svg width="14" height="14" viewBox="0 0 14 14" fill="none" xmlns="http://www.w3.org/2000/svg">
<path d="M12.75 0.75H1.25C0.973437 0.75 0.75 0.973437 0.75 1.25V12.75C0.75 13.0266 0.973437 13.25 1.25 13.25H12.75C13.0266 13.25 13.25 13.0266 13.25 12.75V1.25C13.25 0.973437 13.0266 0.75 12.75 0.75ZM9.86719 4.71406L6.57656 9.27656C6.53057 9.34076 6.46994 9.39306 6.3997 9.42914C6.32946 9.46523 6.25162 9.48405 6.17266 9.48405C6.09369 9.48405 6.01586 9.46523 5.94561 9.42914C5.87537 9.39306 5.81474 9.34076 5.76875 9.27656L3.82031 6.57656C3.76094 6.49375 3.82031 6.37813 3.92188 6.37813H4.65469C4.81406 6.37813 4.96562 6.45469 5.05937 6.58594L6.17188 8.12969L8.62813 4.72344C8.72188 4.59375 8.87187 4.51562 9.03281 4.51562H9.76562C9.86719 4.51562 9.92656 4.63125 9.86719 4.71406V4.71406Z" fill="#C4C4C4"/>
</svg>
