<svg width="78" height="76" viewBox="0 0 78 76" fill="none" xmlns="http://www.w3.org/2000/svg">
<path fill-rule="evenodd" clip-rule="evenodd" d="M73.125 66.5V9.5C73.125 8.24022 72.6114 7.03204 71.6971 6.14124C70.7829 5.25044 69.5429 4.75 68.25 4.75L9.75 4.75C8.45707 4.75 7.2171 5.25044 6.30286 6.14124C5.38862 7.03204 4.875 8.24022 4.875 9.5V66.5C4.875 67.7598 5.38862 68.968 6.30286 69.8588C7.2171 70.7496 8.45707 71.25 9.75 71.25H68.25C69.5429 71.25 70.7829 70.7496 71.6971 69.8588C72.6114 68.968 73.125 67.7598 73.125 66.5ZM78 9.5C78 6.98044 76.9728 4.56408 75.1443 2.78249C73.3158 1.00089 70.8359 0 68.25 0L9.75 0C7.16414 0 4.68419 1.00089 2.85571 2.78249C1.02723 4.56408 0 6.98044 0 9.5V66.5C0 69.0196 1.02723 71.4359 2.85571 73.2175C4.68419 74.9991 7.16414 76 9.75 76H68.25C70.8359 76 73.3158 74.9991 75.1443 73.2175C76.9728 71.4359 78 69.0196 78 66.5V9.5Z" fill="#C4C4C4"/>
<path fill-rule="evenodd" clip-rule="evenodd" d="M22.6491 36.3186C22.8755 36.0974 23.1445 35.9219 23.4406 35.8022C23.7368 35.6825 24.0542 35.6208 24.3748 35.6208C24.6955 35.6208 25.0129 35.6825 25.3091 35.8022C25.6052 35.9219 25.8742 36.0974 26.1006 36.3186L38.9998 48.8918L51.8991 36.3186C52.1257 36.0978 52.3948 35.9226 52.6909 35.8031C52.987 35.6836 53.3043 35.6221 53.6248 35.6221C53.9454 35.6221 54.2627 35.6836 54.5588 35.8031C54.8549 35.9226 55.124 36.0978 55.3506 36.3186C55.5772 36.5394 55.757 36.8016 55.8797 37.0901C56.0023 37.3786 56.0654 37.6878 56.0654 38.0001C56.0654 38.3124 56.0023 38.6216 55.8797 38.9101C55.757 39.1986 55.5772 39.4608 55.3506 39.6816L40.7256 53.9316C40.4992 54.1528 40.2302 54.3282 39.9341 54.448C39.6379 54.5677 39.3205 54.6293 38.9998 54.6293C38.6792 54.6293 38.3618 54.5677 38.0656 54.448C37.7695 54.3282 37.5005 54.1528 37.2741 53.9316L22.6491 39.6816C22.4221 39.461 22.242 39.1989 22.1191 38.9104C21.9962 38.6218 21.933 38.3125 21.933 38.0001C21.933 37.6877 21.9962 37.3784 22.1191 37.0898C22.242 36.8013 22.4221 36.5392 22.6491 36.3186V36.3186Z" fill="#C4C4C4"/>
<path fill-rule="evenodd" clip-rule="evenodd" d="M39 21.375C39.6465 21.375 40.2665 21.6252 40.7236 22.0706C41.1807 22.516 41.4375 23.1201 41.4375 23.75V47.5C41.4375 48.1299 41.1807 48.734 40.7236 49.1794C40.2665 49.6248 39.6465 49.875 39 49.875C38.3535 49.875 37.7335 49.6248 37.2764 49.1794C36.8193 48.734 36.5625 48.1299 36.5625 47.5V23.75C36.5625 23.1201 36.8193 22.516 37.2764 22.0706C37.7335 21.6252 38.3535 21.375 39 21.375Z" fill="#C4C4C4"/>
</svg>
