<svg width="36" height="24" viewBox="0 0 36 24" fill="none" xmlns="http://www.w3.org/2000/svg">
<path d="M27.7188 11.0625L28 16C28.0417 16.7188 27.6146 17.3854 26.7188 18C25.8229 18.6146 24.599 19.1016 23.0469 19.4609C21.4948 19.8203 19.8125 20 18 20C16.1875 20 14.5052 19.8203 12.9531 19.4609C11.401 19.1016 10.1771 18.6146 9.28125 18C8.38542 17.3854 7.95833 16.7188 8 16L8.28125 11.0625L17.25 13.8906C17.4792 13.9635 17.7292 14 18 14C18.2708 14 18.5208 13.9635 18.75 13.8906L27.7188 11.0625ZM36 6C36 6.23958 35.8854 6.40104 35.6562 6.48438L18.1562 11.9844C18.1146 11.9948 18.0625 12 18 12C17.9375 12 17.8854 11.9948 17.8438 11.9844L7.65625 8.76562C7.20833 9.11979 6.83854 9.70052 6.54688 10.5078C6.25521 11.3151 6.07812 12.2448 6.01562 13.2969C6.67188 13.6719 7 14.2396 7 15C7 15.7188 6.69792 16.276 6.09375 16.6719L7 23.4375C7.02083 23.5833 6.97917 23.7135 6.875 23.8281C6.78125 23.9427 6.65625 24 6.5 24H3.5C3.34375 24 3.21875 23.9427 3.125 23.8281C3.02083 23.7135 2.97917 23.5833 3 23.4375L3.90625 16.6719C3.30208 16.276 3 15.7188 3 15C3 14.2396 3.33854 13.6615 4.01562 13.2656C4.13021 11.1094 4.64062 9.39062 5.54688 8.10938L0.34375 6.48438C0.114583 6.40104 0 6.23958 0 6C0 5.76042 0.114583 5.59896 0.34375 5.51562L17.8438 0.015625C17.8854 0.00520833 17.9375 0 18 0C18.0625 0 18.1146 0.00520833 18.1562 0.015625L35.6562 5.51562C35.8854 5.59896 36 5.76042 36 6Z" fill="#DAD8D8"/>
</svg>
