<svg width="481" height="467" viewBox="0 0 481 467" fill="none" xmlns="http://www.w3.org/2000/svg">
<path d="M461.052 0.0175781H19.9452C9.33701 0.0175781 0.766602 8.36455 0.766602 18.6962V448.303C0.766602 458.636 9.33701 466.982 19.9452 466.982H461.052C471.662 466.982 480.231 458.636 480.231 448.303V18.6962C480.231 8.36455 471.662 0.0175781 461.052 0.0175781ZM350.476 148.104L224.257 318.546C222.493 320.944 220.167 322.898 217.473 324.245C214.779 325.594 211.793 326.297 208.764 326.297C205.735 326.297 202.75 325.594 200.055 324.245C197.361 322.898 195.036 320.944 193.272 318.546L118.535 217.681C116.258 214.588 118.535 210.268 122.431 210.268H150.539C156.652 210.268 162.466 213.129 166.062 218.032L208.734 275.702L302.949 148.454C306.545 143.609 312.298 140.69 318.472 140.69H346.58C350.476 140.69 352.753 145.01 350.476 148.104Z" fill="#90FF74"/>
</svg>
