<svg width="269" height="258" viewBox="0 0 269 258" fill="none" xmlns="http://www.w3.org/2000/svg">
<path d="M103.462 258C101.524 258.006 99.6246 257.448 97.9781 256.387C96.4871 255.419 95.2582 254.072 94.4073 252.473C93.5565 250.875 93.1119 249.077 93.1154 247.25V143.835L13.2432 51.7075C4.69491 41.8178 -0.0231795 28.9876 8.56326e-05 15.695V10.75C8.56326e-05 7.89892 1.09012 5.16462 3.0304 3.1486C4.97068 1.13259 7.60226 0 10.3462 0H258.654C261.398 0 264.029 1.13259 265.97 3.1486C267.91 5.16462 269 7.89892 269 10.75V15.695C269.023 28.9876 264.305 41.8178 255.757 51.7075L175.885 143.835V201.67C175.896 207.673 174.294 213.561 171.26 218.67C168.226 223.778 163.879 227.906 158.71 230.587L108.117 256.817C106.676 257.585 105.081 257.99 103.462 258ZM21.2097 21.5C22.235 27.3831 24.8141 32.8543 28.6589 37.3025L111.428 132.547C113.041 134.566 113.887 137.128 113.808 139.75V229.835L149.502 211.345C151.224 210.443 152.669 209.06 153.675 207.35C154.68 205.641 155.206 203.673 155.192 201.67V139.75C155.199 137.086 156.158 134.519 157.882 132.547L240.651 37.3025C244.571 32.8795 247.223 27.4061 248.308 21.5H21.2097Z" fill="#277496"/>
</svg>
