<svg width="41" height="39" viewBox="0 0 41 39" fill="none" xmlns="http://www.w3.org/2000/svg">
<path d="M40.4693 19.4449C40.4693 30.1837 31.41 38.8898 20.2347 38.8898C9.05933 38.8898 0 30.185 0 19.4449C0 8.70545 9.05867 0 20.2347 0C31.41 0 40.4693 8.70609 40.4693 19.4449ZM20.2347 4.34664C11.5567 4.34664 4.522 11.1065 4.522 19.4455C4.522 27.7839 11.556 34.5451 20.2347 34.5451C28.9127 34.5451 35.9473 27.7839 35.9473 19.4455C35.948 11.1072 28.9127 4.34664 20.2347 4.34664ZM16.0927 14.9266C16.0927 11.8593 18.14 10.7824 20.186 10.7824C21.404 10.7824 22.4467 10.8906 23.28 11.8823C25.2293 14.2007 23.054 16.4506 20.5753 17.6415C18.8213 18.4846 17.9927 19.9132 17.9927 21.9023V26.3521H22.6213V23.7294C22.6213 19.7255 25.3013 20.7319 27.2507 18.2277C29.8867 14.8401 29.3167 11.0213 25.7393 8.30058C21.6473 5.1865 17.0167 6.73169 15.726 7.57475C14.6533 8.27495 10.8533 10.8759 11.584 16.4711L16.082 16.4801C16.082 16.4807 16.0913 15.9567 16.0913 14.9266H16.0927ZM22.6227 32.4393V27.8742H17.994V32.4393H22.6227Z" fill="var(--gray-strong)"/>
</svg>
